<svg xmlns="http://www.w3.org/2000/svg" viewBox="0 0 1600 900">
  <defs>
    <linearGradient id="bg" x1="0" y1="0" x2="1" y2="1">
      <stop offset="0%" stop-color="#050816"/>
      <stop offset="60%" stop-color="#0f1730"/>
      <stop offset="100%" stop-color="#1b1450"/>
    </linearGradient>
    <linearGradient id="neon" x1="0" y1="0" x2="1" y2="0">
      <stop offset="0%" stop-color="#4f46e5"/>
      <stop offset="50%" stop-color="#22d3ee"/>
      <stop offset="100%" stop-color="#ec4899"/>
    </linearGradient>
  </defs>
  <rect width="1600" height="900" fill="url(#bg)"/>
  <circle cx="1220" cy="170" r="110" fill="#f9fafb" opacity="0.1"/>
  <circle cx="1220" cy="170" r="80" fill="#f9fafb" opacity="0.05"/>
  <g opacity="0.9">
    <rect x="0" y="540" width="1600" height="6" fill="url(#neon)"/>
    <rect x="0" y="610" width="1600" height="3" fill="#22d3ee" opacity="0.6"/>
  </g>
  <g fill="#0d1330">
    <rect x="80" y="340" width="180" height="420" rx="12"/>
    <rect x="300" y="280" width="210" height="480" rx="12"/>
    <rect x="560" y="230" width="240" height="530" rx="12"/>
    <rect x="860" y="320" width="170" height="430" rx="12"/>
    <rect x="1070" y="250" width="240" height="500" rx="12"/>
    <rect x="1360" y="360" width="160" height="390" rx="12"/>
  </g>
  <g fill="#22d3ee" opacity="0.85">
    <rect x="120" y="380" width="22" height="80" rx="4"/>
    <rect x="160" y="410" width="22" height="120" rx="4"/>
    <rect x="340" y="330" width="22" height="150" rx="4"/>
    <rect x="380" y="360" width="22" height="100" rx="4"/>
    <rect x="620" y="280" width="26" height="180" rx="4"/>
    <rect x="670" y="330" width="26" height="120" rx="4"/>
    <rect x="930" y="360" width="18" height="110" rx="4"/>
    <rect x="980" y="390" width="18" height="90" rx="4"/>
    <rect x="1120" y="300" width="24" height="150" rx="4"/>
    <rect x="1180" y="340" width="24" height="110" rx="4"/>
    <rect x="1390" y="400" width="16" height="80" rx="4"/>
  </g>
  <path d="M0 840 C260 790 420 810 620 800 C840 790 1040 760 1260 780 C1400 792 1500 810 1600 820 L1600 900 L0 900 Z" fill="#05060d"/>
  <path d="M0 740 C180 720 260 690 420 700 C620 714 780 760 960 740 C1140 720 1270 670 1400 675 C1490 680 1550 695 1600 710" stroke="#ec4899" stroke-width="3" fill="none" opacity="0.5"/>
</svg>
