<svg xmlns="http://www.w3.org/2000/svg" viewBox="0 0 1600 900">
  <defs>
    <linearGradient id="bg" x1="0" y1="0" x2="0" y2="1">
      <stop offset="0%" stop-color="#09111e"/>
      <stop offset="100%" stop-color="#14253a"/>
    </linearGradient>
    <radialGradient id="glow" cx="50%" cy="30%" r="40%">
      <stop offset="0%" stop-color="#a5f3fc" stop-opacity="0.8"/>
      <stop offset="100%" stop-color="#a5f3fc" stop-opacity="0"/>
    </radialGradient>
  </defs>
  <rect width="1600" height="900" fill="url(#bg)"/>
  <circle cx="1240" cy="170" r="120" fill="#dbeafe" opacity="0.12"/>
  <circle cx="1240" cy="170" r="78" fill="#eff6ff" opacity="0.9"/>
  <circle cx="1240" cy="170" r="160" fill="url(#glow)"/>
  <g opacity="0.55" stroke="#93c5fd" stroke-width="6" stroke-linecap="round">
    <path d="M180 160v130"/>
    <path d="M250 110v160"/>
    <path d="M320 180v120"/>
    <path d="M390 90v180"/>
    <path d="M460 150v140"/>
    <path d="M530 100v160"/>
    <path d="M1100 250v160"/>
    <path d="M1170 220v170"/>
    <path d="M1310 260v150"/>
  </g>
  <path d="M0 640 C220 590 410 620 620 610 C820 600 960 540 1140 560 C1320 580 1470 650 1600 630 L1600 900 L0 900 Z" fill="#02040a"/>
  <path d="M0 720 C180 690 340 720 520 706 C740 688 910 740 1110 718 C1260 702 1390 680 1600 710 L1600 900 L0 900 Z" fill="#071120"/>
  <g fill="#67e8f9" opacity="0.25">
    <circle cx="180" cy="120" r="10"/>
    <circle cx="240" cy="200" r="6"/>
    <circle cx="390" cy="70" r="8"/>
    <circle cx="520" cy="140" r="12"/>
    <circle cx="980" cy="220" r="10"/>
    <circle cx="1120" cy="90" r="7"/>
    <circle cx="1380" cy="240" r="9"/>
  </g>
</svg>
