<svg xmlns="http://www.w3.org/2000/svg" viewBox="0 0 1600 900">
  <defs>
    <linearGradient id="bg" x1="0" y1="0" x2="1" y2="1">
      <stop offset="0%" stop-color="#0b1020"/>
      <stop offset="55%" stop-color="#1b1f3a"/>
      <stop offset="100%" stop-color="#4b1d5d"/>
    </linearGradient>
    <linearGradient id="moon" x1="0" y1="0" x2="0" y2="1">
      <stop offset="0%" stop-color="#fff8d6"/>
      <stop offset="100%" stop-color="#ffd77a"/>
    </linearGradient>
  </defs>
  <rect width="1600" height="900" fill="url(#bg)"/>
  <circle cx="1180" cy="170" r="90" fill="url(#moon)" opacity="0.95"/>
  <circle cx="1180" cy="170" r="130" fill="#fff8d6" opacity="0.08"/>
  <g fill="#ffb7d5" opacity="0.9">
    <circle cx="280" cy="160" r="18"/>
    <circle cx="330" cy="120" r="12"/>
    <circle cx="370" cy="190" r="15"/>
    <circle cx="1260" cy="260" r="16"/>
    <circle cx="1320" cy="220" r="11"/>
    <circle cx="1370" cy="300" r="14"/>
  </g>
  <path d="M0 650 C220 600 320 700 500 670 C700 635 860 540 1080 585 C1260 622 1400 700 1600 660 L1600 900 L0 900 Z" fill="#08101b"/>
  <path d="M0 760 C180 720 290 760 420 740 C620 708 730 820 900 790 C1080 758 1220 700 1380 730 C1470 748 1540 780 1600 770 L1600 900 L0 900 Z" fill="#05080d"/>
  <g fill="#ff9bc1">
    <path d="M260 690c20-24 46-28 72-6-20 14-43 26-72 6z"/>
    <path d="M310 715c20-24 46-28 72-6-20 14-43 26-72 6z"/>
    <path d="M1290 670c20-24 46-28 72-6-20 14-43 26-72 6z"/>
    <path d="M1350 705c20-24 46-28 72-6-20 14-43 26-72 6z"/>
  </g>
</svg>
